<svg id="visual" viewBox="0 0 900 600" width="900" height="600" xmlns="http://www.w3.org/2000/svg" xmlns:xlink="http://www.w3.org/1999/xlink" version="1.1"><rect x="0" y="0" width="900" height="600" fill="#def1ff"></rect><defs><linearGradient id="grad1_0" x1="33.3%" y1="100%" x2="100%" y2="0%"><stop offset="20%" stop-color="#73b2d1" stop-opacity="1"></stop><stop offset="80%" stop-color="#73b2d1" stop-opacity="1"></stop></linearGradient></defs><defs><linearGradient id="grad1_1" x1="33.3%" y1="100%" x2="100%" y2="0%"><stop offset="20%" stop-color="#73b2d1" stop-opacity="1"></stop><stop offset="80%" stop-color="#abd1e8" stop-opacity="1"></stop></linearGradient></defs><defs><linearGradient id="grad1_2" x1="33.3%" y1="100%" x2="100%" y2="0%"><stop offset="20%" stop-color="#def1ff" stop-opacity="1"></stop><stop offset="80%" stop-color="#abd1e8" stop-opacity="1"></stop></linearGradient></defs><defs><linearGradient id="grad2_0" x1="0%" y1="100%" x2="66.7%" y2="0%"><stop offset="20%" stop-color="#73b2d1" stop-opacity="1"></stop><stop offset="80%" stop-color="#73b2d1" stop-opacity="1"></stop></linearGradient></defs><defs><linearGradient id="grad2_1" x1="0%" y1="100%" x2="66.7%" y2="0%"><stop offset="20%" stop-color="#abd1e8" stop-opacity="1"></stop><stop offset="80%" stop-color="#73b2d1" stop-opacity="1"></stop></linearGradient></defs><defs><linearGradient id="grad2_2" x1="0%" y1="100%" x2="66.7%" y2="0%"><stop offset="20%" stop-color="#abd1e8" stop-opacity="1"></stop><stop offset="80%" stop-color="#def1ff" stop-opacity="1"></stop></linearGradient></defs><g transform="translate(900, 600)"><path d="M-378.6 0C-373.4 -74.4 -368.2 -148.8 -327.9 -189.3C-287.5 -229.8 -212 -236.5 -151.5 -262.4C-91 -288.3 -45.5 -333.4 0 -378.6L0 0Z" fill="#c5e1f4"></path><path d="M-252.4 0C-248.9 -49.6 -245.5 -99.2 -218.6 -126.2C-191.7 -153.2 -141.3 -157.7 -101 -174.9C-60.7 -192.2 -30.3 -222.3 0 -252.4L0 0Z" fill="#90c1dd"></path><path d="M-126.2 0C-124.5 -24.8 -122.7 -49.6 -109.3 -63.1C-95.8 -76.6 -70.7 -78.8 -50.5 -87.5C-30.3 -96.1 -15.2 -111.1 0 -126.2L0 0Z" fill="#73b2d1"></path></g><g transform="translate(0, 0)"><path d="M378.6 0C368.7 66.3 358.9 132.6 327.9 189.3C296.8 246 244.7 293.1 186.5 323C128.3 353 64.2 365.8 0 378.6L0 0Z" fill="#c5e1f4"></path><path d="M252.4 0C245.8 44.2 239.3 88.4 218.6 126.2C197.9 164 163.1 195.4 124.3 215.4C85.6 235.3 42.8 243.9 0 252.4L0 0Z" fill="#90c1dd"></path><path d="M126.2 0C122.9 22.1 119.6 44.2 109.3 63.1C98.9 82 81.6 97.7 62.2 107.7C42.8 117.7 21.4 121.9 0 126.2L0 0Z" fill="#73b2d1"></path></g></svg>